<mxfile host="app.diagrams.net" modified="2022-12-21T12:30:14.794Z" agent="5.0 (X11)" etag="dhAU97IFBP_wxddmfllS" version="20.7.4" type="github">
  <diagram id="45ZHT5c-B5uZ-u51Fnz1" name="aggregators">
    <mxGraphModel dx="2074" dy="1093" grid="1" gridSize="10" guides="1" tooltips="1" connect="1" arrows="1" fold="1" page="1" pageScale="1" pageWidth="850" pageHeight="1100" math="0" shadow="0">
      <root>
        <mxCell id="0" />
        <mxCell id="1" parent="0" />
        <mxCell id="jOv1jI9sGNHT83Ywalm9-78" value="&lt;font style=&quot;font-size: 12px;&quot;&gt;Attestations&lt;/font&gt;" style="text;html=1;strokeColor=none;fillColor=none;align=center;verticalAlign=middle;whiteSpace=wrap;rounded=0;sketch=1;fontFamily=Gloria Hallelujah;fontSource=https%3A%2F%2Ffonts.googleapis.com%2Fcss%3Ffamily%3DGloria%2BHallelujah;fontSize=16;" parent="1" vertex="1">
          <mxGeometry x="239" y="75" width="60" height="30" as="geometry" />
        </mxCell>
        <mxCell id="jOv1jI9sGNHT83Ywalm9-54" value="" style="rounded=1;whiteSpace=wrap;html=1;sketch=1;fillColor=none;" parent="1" vertex="1">
          <mxGeometry x="73" y="50" width="299" height="180" as="geometry" />
        </mxCell>
        <mxCell id="jOv1jI9sGNHT83Ywalm9-1" value="" style="shape=umlActor;verticalLabelPosition=bottom;verticalAlign=top;html=1;outlineConnect=0;sketch=1;rounded=0;" parent="1" vertex="1">
          <mxGeometry x="92" y="70" width="20" height="40" as="geometry" />
        </mxCell>
        <mxCell id="jOv1jI9sGNHT83Ywalm9-2" value="" style="shape=umlActor;verticalLabelPosition=bottom;verticalAlign=top;html=1;outlineConnect=0;sketch=1;rounded=0;" parent="1" vertex="1">
          <mxGeometry x="112" y="90" width="20" height="40" as="geometry" />
        </mxCell>
        <mxCell id="jOv1jI9sGNHT83Ywalm9-3" value="" style="shape=umlActor;verticalLabelPosition=bottom;verticalAlign=top;html=1;outlineConnect=0;sketch=1;rounded=0;" parent="1" vertex="1">
          <mxGeometry x="132" y="65" width="20" height="40" as="geometry" />
        </mxCell>
        <mxCell id="jOv1jI9sGNHT83Ywalm9-4" value="" style="shape=umlActor;verticalLabelPosition=bottom;verticalAlign=top;html=1;outlineConnect=0;sketch=1;rounded=0;" parent="1" vertex="1">
          <mxGeometry x="312" y="80" width="20" height="40" as="geometry" />
        </mxCell>
        <mxCell id="jOv1jI9sGNHT83Ywalm9-6" value="" style="shape=umlActor;verticalLabelPosition=bottom;verticalAlign=top;html=1;outlineConnect=0;sketch=1;rounded=0;" parent="1" vertex="1">
          <mxGeometry x="116" y="140" width="20" height="40" as="geometry" />
        </mxCell>
        <mxCell id="jOv1jI9sGNHT83Ywalm9-7" value="" style="shape=umlActor;verticalLabelPosition=bottom;verticalAlign=top;html=1;outlineConnect=0;sketch=1;rounded=0;" parent="1" vertex="1">
          <mxGeometry x="82" y="120" width="20" height="40" as="geometry" />
        </mxCell>
        <mxCell id="jOv1jI9sGNHT83Ywalm9-8" value="" style="shape=umlActor;verticalLabelPosition=bottom;verticalAlign=top;html=1;outlineConnect=0;sketch=1;rounded=0;" parent="1" vertex="1">
          <mxGeometry x="92" y="150" width="20" height="40" as="geometry" />
        </mxCell>
        <mxCell id="jOv1jI9sGNHT83Ywalm9-10" value="" style="shape=umlActor;verticalLabelPosition=bottom;verticalAlign=top;html=1;outlineConnect=0;sketch=1;rounded=0;" parent="1" vertex="1">
          <mxGeometry x="138" y="159" width="20" height="40" as="geometry" />
        </mxCell>
        <mxCell id="jOv1jI9sGNHT83Ywalm9-11" value="" style="shape=umlActor;verticalLabelPosition=bottom;verticalAlign=top;html=1;outlineConnect=0;sketch=1;rounded=0;" parent="1" vertex="1">
          <mxGeometry x="138" y="110" width="20" height="40" as="geometry" />
        </mxCell>
        <mxCell id="jOv1jI9sGNHT83Ywalm9-14" value="" style="shape=umlActor;verticalLabelPosition=bottom;verticalAlign=top;html=1;outlineConnect=0;sketch=1;rounded=0;" parent="1" vertex="1">
          <mxGeometry x="312" y="140" width="20" height="40" as="geometry" />
        </mxCell>
        <mxCell id="jOv1jI9sGNHT83Ywalm9-15" value="&lt;font data-font-src=&quot;https://fonts.googleapis.com/css?family=Gloria+Hallelujah&quot; face=&quot;Gloria Hallelujah&quot;&gt;Subnet&lt;/font&gt;" style="rounded=1;whiteSpace=wrap;html=1;sketch=1;rotation=-90;dashed=1;fillColor=none;" parent="1" vertex="1">
          <mxGeometry x="152" y="120" width="120" height="20" as="geometry" />
        </mxCell>
        <mxCell id="jOv1jI9sGNHT83Ywalm9-17" value="" style="endArrow=classic;html=1;sketch=1;" parent="1" edge="1">
          <mxGeometry width="50" height="50" relative="1" as="geometry">
            <mxPoint x="162" y="100" as="sourcePoint" />
            <mxPoint x="192" y="100" as="targetPoint" />
          </mxGeometry>
        </mxCell>
        <mxCell id="jOv1jI9sGNHT83Ywalm9-18" value="" style="endArrow=classic;html=1;sketch=1;" parent="1" edge="1">
          <mxGeometry width="50" height="50" relative="1" as="geometry">
            <mxPoint x="162" y="109.43" as="sourcePoint" />
            <mxPoint x="192" y="109.43" as="targetPoint" />
          </mxGeometry>
        </mxCell>
        <mxCell id="jOv1jI9sGNHT83Ywalm9-19" value="" style="endArrow=classic;html=1;sketch=1;" parent="1" edge="1">
          <mxGeometry width="50" height="50" relative="1" as="geometry">
            <mxPoint x="162" y="120" as="sourcePoint" />
            <mxPoint x="192" y="120" as="targetPoint" />
          </mxGeometry>
        </mxCell>
        <mxCell id="jOv1jI9sGNHT83Ywalm9-20" value="" style="endArrow=classic;html=1;sketch=1;" parent="1" edge="1">
          <mxGeometry width="50" height="50" relative="1" as="geometry">
            <mxPoint x="162" y="129.71" as="sourcePoint" />
            <mxPoint x="192" y="129.71" as="targetPoint" />
          </mxGeometry>
        </mxCell>
        <mxCell id="jOv1jI9sGNHT83Ywalm9-21" value="" style="endArrow=classic;html=1;sketch=1;" parent="1" edge="1">
          <mxGeometry width="50" height="50" relative="1" as="geometry">
            <mxPoint x="162" y="140" as="sourcePoint" />
            <mxPoint x="192" y="140" as="targetPoint" />
          </mxGeometry>
        </mxCell>
        <mxCell id="jOv1jI9sGNHT83Ywalm9-22" value="" style="endArrow=classic;html=1;sketch=1;" parent="1" edge="1">
          <mxGeometry width="50" height="50" relative="1" as="geometry">
            <mxPoint x="162" y="150" as="sourcePoint" />
            <mxPoint x="192" y="150" as="targetPoint" />
          </mxGeometry>
        </mxCell>
        <mxCell id="jOv1jI9sGNHT83Ywalm9-23" value="" style="endArrow=classic;html=1;sketch=1;" parent="1" edge="1">
          <mxGeometry width="50" height="50" relative="1" as="geometry">
            <mxPoint x="162" y="160" as="sourcePoint" />
            <mxPoint x="192" y="160" as="targetPoint" />
          </mxGeometry>
        </mxCell>
        <mxCell id="jOv1jI9sGNHT83Ywalm9-24" value="" style="endArrow=classic;html=1;sketch=1;" parent="1" edge="1">
          <mxGeometry width="50" height="50" relative="1" as="geometry">
            <mxPoint x="162" y="170" as="sourcePoint" />
            <mxPoint x="192" y="170" as="targetPoint" />
          </mxGeometry>
        </mxCell>
        <mxCell id="jOv1jI9sGNHT83Ywalm9-25" value="" style="endArrow=none;html=1;sketch=1;endFill=0;" parent="1" target="jOv1jI9sGNHT83Ywalm9-4" edge="1">
          <mxGeometry width="50" height="50" relative="1" as="geometry">
            <mxPoint x="232" y="100" as="sourcePoint" />
            <mxPoint x="202" y="110" as="targetPoint" />
          </mxGeometry>
        </mxCell>
        <mxCell id="jOv1jI9sGNHT83Ywalm9-27" value="" style="endArrow=none;html=1;sketch=1;endFill=0;" parent="1" edge="1">
          <mxGeometry width="50" height="50" relative="1" as="geometry">
            <mxPoint x="232" y="110" as="sourcePoint" />
            <mxPoint x="310" y="100" as="targetPoint" />
          </mxGeometry>
        </mxCell>
        <mxCell id="jOv1jI9sGNHT83Ywalm9-28" value="" style="endArrow=none;html=1;sketch=1;endFill=0;" parent="1" edge="1">
          <mxGeometry width="50" height="50" relative="1" as="geometry">
            <mxPoint x="232" y="120" as="sourcePoint" />
            <mxPoint x="310" y="100" as="targetPoint" />
          </mxGeometry>
        </mxCell>
        <mxCell id="jOv1jI9sGNHT83Ywalm9-29" value="" style="endArrow=none;html=1;sketch=1;endFill=0;" parent="1" edge="1">
          <mxGeometry width="50" height="50" relative="1" as="geometry">
            <mxPoint x="232" y="129.71" as="sourcePoint" />
            <mxPoint x="310" y="100" as="targetPoint" />
          </mxGeometry>
        </mxCell>
        <mxCell id="jOv1jI9sGNHT83Ywalm9-30" value="" style="endArrow=none;html=1;sketch=1;endFill=0;" parent="1" edge="1">
          <mxGeometry width="50" height="50" relative="1" as="geometry">
            <mxPoint x="232" y="139.43" as="sourcePoint" />
            <mxPoint x="310" y="100" as="targetPoint" />
          </mxGeometry>
        </mxCell>
        <mxCell id="jOv1jI9sGNHT83Ywalm9-31" value="" style="endArrow=none;html=1;sketch=1;endFill=0;" parent="1" edge="1">
          <mxGeometry width="50" height="50" relative="1" as="geometry">
            <mxPoint x="232" y="150.00000000000006" as="sourcePoint" />
            <mxPoint x="310" y="100" as="targetPoint" />
          </mxGeometry>
        </mxCell>
        <mxCell id="jOv1jI9sGNHT83Ywalm9-33" value="" style="endArrow=none;html=1;sketch=1;endFill=0;" parent="1" edge="1">
          <mxGeometry width="50" height="50" relative="1" as="geometry">
            <mxPoint x="232" y="140.00000000000006" as="sourcePoint" />
            <mxPoint x="310" y="100" as="targetPoint" />
          </mxGeometry>
        </mxCell>
        <mxCell id="jOv1jI9sGNHT83Ywalm9-43" value="" style="endArrow=none;html=1;sketch=1;endFill=0;" parent="1" edge="1">
          <mxGeometry width="50" height="50" relative="1" as="geometry">
            <mxPoint x="232" y="100" as="sourcePoint" />
            <mxPoint x="310" y="160" as="targetPoint" />
          </mxGeometry>
        </mxCell>
        <mxCell id="jOv1jI9sGNHT83Ywalm9-44" value="" style="endArrow=none;html=1;sketch=1;endFill=0;" parent="1" edge="1">
          <mxGeometry width="50" height="50" relative="1" as="geometry">
            <mxPoint x="232" y="110" as="sourcePoint" />
            <mxPoint x="310" y="160" as="targetPoint" />
          </mxGeometry>
        </mxCell>
        <mxCell id="jOv1jI9sGNHT83Ywalm9-45" value="" style="endArrow=none;html=1;sketch=1;endFill=0;" parent="1" edge="1">
          <mxGeometry width="50" height="50" relative="1" as="geometry">
            <mxPoint x="232" y="120" as="sourcePoint" />
            <mxPoint x="310" y="160" as="targetPoint" />
          </mxGeometry>
        </mxCell>
        <mxCell id="jOv1jI9sGNHT83Ywalm9-47" value="" style="endArrow=none;html=1;sketch=1;endFill=0;" parent="1" edge="1">
          <mxGeometry width="50" height="50" relative="1" as="geometry">
            <mxPoint x="232" y="149" as="sourcePoint" />
            <mxPoint x="310" y="160" as="targetPoint" />
          </mxGeometry>
        </mxCell>
        <mxCell id="jOv1jI9sGNHT83Ywalm9-48" value="" style="endArrow=none;html=1;sketch=1;endFill=0;" parent="1" edge="1">
          <mxGeometry width="50" height="50" relative="1" as="geometry">
            <mxPoint x="232" y="160" as="sourcePoint" />
            <mxPoint x="310" y="160" as="targetPoint" />
          </mxGeometry>
        </mxCell>
        <mxCell id="jOv1jI9sGNHT83Ywalm9-49" value="" style="endArrow=none;html=1;sketch=1;endFill=0;entryX=0.793;entryY=0.611;entryDx=0;entryDy=0;entryPerimeter=0;" parent="1" target="jOv1jI9sGNHT83Ywalm9-54" edge="1">
          <mxGeometry width="50" height="50" relative="1" as="geometry">
            <mxPoint x="232" y="170" as="sourcePoint" />
            <mxPoint x="262" y="160" as="targetPoint" />
          </mxGeometry>
        </mxCell>
        <mxCell id="jOv1jI9sGNHT83Ywalm9-50" value="" style="endArrow=none;html=1;sketch=1;endFill=0;" parent="1" edge="1">
          <mxGeometry width="50" height="50" relative="1" as="geometry">
            <mxPoint x="232" y="140" as="sourcePoint" />
            <mxPoint x="310" y="160" as="targetPoint" />
          </mxGeometry>
        </mxCell>
        <mxCell id="jOv1jI9sGNHT83Ywalm9-51" value="" style="endArrow=none;html=1;sketch=1;endFill=0;" parent="1" edge="1">
          <mxGeometry width="50" height="50" relative="1" as="geometry">
            <mxPoint x="232" y="170" as="sourcePoint" />
            <mxPoint x="310" y="100" as="targetPoint" />
          </mxGeometry>
        </mxCell>
        <mxCell id="jOv1jI9sGNHT83Ywalm9-52" value="" style="endArrow=classic;html=1;sketch=1;exitX=0.86;exitY=0.278;exitDx=0;exitDy=0;exitPerimeter=0;entryX=0.946;entryY=0.062;entryDx=0;entryDy=0;entryPerimeter=0;" parent="1" source="jOv1jI9sGNHT83Ywalm9-54" target="jOv1jI9sGNHT83Ywalm9-55" edge="1">
          <mxGeometry width="50" height="50" relative="1" as="geometry">
            <mxPoint x="351" y="99.71000000000001" as="sourcePoint" />
            <mxPoint x="401" y="100" as="targetPoint" />
          </mxGeometry>
        </mxCell>
        <mxCell id="jOv1jI9sGNHT83Ywalm9-53" value="" style="endArrow=classic;html=1;sketch=1;exitX=0.86;exitY=0.611;exitDx=0;exitDy=0;exitPerimeter=0;entryX=0.75;entryY=0;entryDx=0;entryDy=0;" parent="1" source="jOv1jI9sGNHT83Ywalm9-54" target="jOv1jI9sGNHT83Ywalm9-55" edge="1">
          <mxGeometry width="50" height="50" relative="1" as="geometry">
            <mxPoint x="351" y="159.43000000000004" as="sourcePoint" />
            <mxPoint x="401" y="159" as="targetPoint" />
          </mxGeometry>
        </mxCell>
        <mxCell id="jOv1jI9sGNHT83Ywalm9-55" value="&lt;div&gt;&lt;font data-font-src=&quot;https://fonts.googleapis.com/css?family=Gloria+Hallelujah&quot; face=&quot;Gloria Hallelujah&quot;&gt;Global topic&lt;/font&gt;&lt;/div&gt;" style="rounded=1;whiteSpace=wrap;html=1;sketch=1;rotation=-90;dashed=1;fillColor=none;" parent="1" vertex="1">
          <mxGeometry x="275.75" y="223.25" width="296.5" height="20" as="geometry" />
        </mxCell>
        <mxCell id="jOv1jI9sGNHT83Ywalm9-56" value="" style="rounded=1;whiteSpace=wrap;html=1;sketch=1;fillColor=none;" parent="1" vertex="1">
          <mxGeometry x="72" y="255" width="300" height="30" as="geometry" />
        </mxCell>
        <mxCell id="jOv1jI9sGNHT83Ywalm9-57" value="" style="rounded=1;whiteSpace=wrap;html=1;sketch=1;fillColor=none;" parent="1" vertex="1">
          <mxGeometry x="72" y="305" width="300" height="30" as="geometry" />
        </mxCell>
        <mxCell id="jOv1jI9sGNHT83Ywalm9-58" value="" style="rounded=1;whiteSpace=wrap;html=1;sketch=1;fillColor=none;" parent="1" vertex="1">
          <mxGeometry x="72" y="355" width="300" height="30" as="geometry" />
        </mxCell>
        <mxCell id="jOv1jI9sGNHT83Ywalm9-59" value="" style="endArrow=classic;html=1;sketch=1;entryX=0.397;entryY=-0.076;entryDx=0;entryDy=0;entryPerimeter=0;" parent="1" target="jOv1jI9sGNHT83Ywalm9-55" edge="1">
          <mxGeometry width="50" height="50" relative="1" as="geometry">
            <mxPoint x="351" y="265.43000000000006" as="sourcePoint" />
            <mxPoint x="410" y="265" as="targetPoint" />
          </mxGeometry>
        </mxCell>
        <mxCell id="jOv1jI9sGNHT83Ywalm9-60" value="" style="endArrow=classic;html=1;sketch=1;entryX=0.36;entryY=-0.007;entryDx=0;entryDy=0;entryPerimeter=0;" parent="1" target="jOv1jI9sGNHT83Ywalm9-55" edge="1">
          <mxGeometry width="50" height="50" relative="1" as="geometry">
            <mxPoint x="351" y="275.43000000000006" as="sourcePoint" />
            <mxPoint x="401" y="275" as="targetPoint" />
          </mxGeometry>
        </mxCell>
        <mxCell id="jOv1jI9sGNHT83Ywalm9-61" value="" style="endArrow=classic;html=1;sketch=1;entryX=0.222;entryY=-0.007;entryDx=0;entryDy=0;entryPerimeter=0;" parent="1" target="jOv1jI9sGNHT83Ywalm9-55" edge="1">
          <mxGeometry width="50" height="50" relative="1" as="geometry">
            <mxPoint x="351" y="315.43000000000006" as="sourcePoint" />
            <mxPoint x="410" y="315" as="targetPoint" />
          </mxGeometry>
        </mxCell>
        <mxCell id="jOv1jI9sGNHT83Ywalm9-62" value="" style="endArrow=classic;html=1;sketch=1;entryX=0.185;entryY=-0.007;entryDx=0;entryDy=0;entryPerimeter=0;" parent="1" target="jOv1jI9sGNHT83Ywalm9-55" edge="1">
          <mxGeometry width="50" height="50" relative="1" as="geometry">
            <mxPoint x="351" y="325.43000000000006" as="sourcePoint" />
            <mxPoint x="401" y="325" as="targetPoint" />
          </mxGeometry>
        </mxCell>
        <mxCell id="jOv1jI9sGNHT83Ywalm9-63" value="" style="endArrow=classic;html=1;sketch=1;entryX=0.053;entryY=-0.007;entryDx=0;entryDy=0;entryPerimeter=0;" parent="1" target="jOv1jI9sGNHT83Ywalm9-55" edge="1">
          <mxGeometry width="50" height="50" relative="1" as="geometry">
            <mxPoint x="351" y="365.43000000000006" as="sourcePoint" />
            <mxPoint x="401" y="365" as="targetPoint" />
          </mxGeometry>
        </mxCell>
        <mxCell id="jOv1jI9sGNHT83Ywalm9-64" value="" style="endArrow=classic;html=1;sketch=1;entryX=0.02;entryY=0.062;entryDx=0;entryDy=0;entryPerimeter=0;" parent="1" target="jOv1jI9sGNHT83Ywalm9-55" edge="1">
          <mxGeometry width="50" height="50" relative="1" as="geometry">
            <mxPoint x="351" y="375.43000000000006" as="sourcePoint" />
            <mxPoint x="401" y="375" as="targetPoint" />
          </mxGeometry>
        </mxCell>
        <mxCell id="jOv1jI9sGNHT83Ywalm9-65" value="&lt;font style=&quot;font-size: 16px;&quot;&gt;Next block&lt;br&gt;proposer&lt;/font&gt;" style="rounded=1;whiteSpace=wrap;html=1;sketch=1;fontFamily=Gloria Hallelujah;fontSource=https%3A%2F%2Ffonts.googleapis.com%2Fcss%3Ffamily%3DGloria%2BHallelujah;fillColor=none;" parent="1" vertex="1">
          <mxGeometry x="557" y="200" width="120" height="60" as="geometry" />
        </mxCell>
        <mxCell id="jOv1jI9sGNHT83Ywalm9-66" value="" style="endArrow=classic;html=1;sketch=1;endFill=1;exitX=0.838;exitY=1.057;exitDx=0;exitDy=0;entryX=0;entryY=0.5;entryDx=0;entryDy=0;exitPerimeter=0;" parent="1" source="jOv1jI9sGNHT83Ywalm9-55" target="jOv1jI9sGNHT83Ywalm9-65" edge="1">
          <mxGeometry width="50" height="50" relative="1" as="geometry">
            <mxPoint x="242" y="180" as="sourcePoint" />
            <mxPoint x="272" y="170" as="targetPoint" />
          </mxGeometry>
        </mxCell>
        <mxCell id="jOv1jI9sGNHT83Ywalm9-67" value="" style="endArrow=none;html=1;sketch=1;endFill=0;entryX=0;entryY=0.5;entryDx=0;entryDy=0;exitX=0.379;exitY=1.029;exitDx=0;exitDy=0;exitPerimeter=0;" parent="1" source="jOv1jI9sGNHT83Ywalm9-55" target="jOv1jI9sGNHT83Ywalm9-65" edge="1">
          <mxGeometry width="50" height="50" relative="1" as="geometry">
            <mxPoint x="430" y="270" as="sourcePoint" />
            <mxPoint x="462" y="240" as="targetPoint" />
          </mxGeometry>
        </mxCell>
        <mxCell id="jOv1jI9sGNHT83Ywalm9-68" value="" style="endArrow=none;html=1;sketch=1;endFill=0;entryX=0;entryY=0.5;entryDx=0;entryDy=0;exitX=0.208;exitY=1.029;exitDx=0;exitDy=0;exitPerimeter=0;" parent="1" source="jOv1jI9sGNHT83Ywalm9-55" target="jOv1jI9sGNHT83Ywalm9-65" edge="1">
          <mxGeometry width="50" height="50" relative="1" as="geometry">
            <mxPoint x="440" y="320" as="sourcePoint" />
            <mxPoint x="462" y="240" as="targetPoint" />
          </mxGeometry>
        </mxCell>
        <mxCell id="jOv1jI9sGNHT83Ywalm9-69" value="" style="endArrow=classic;html=1;sketch=1;endFill=1;exitX=0.036;exitY=1.029;exitDx=0;exitDy=0;entryX=0;entryY=0.5;entryDx=0;entryDy=0;exitPerimeter=0;" parent="1" source="jOv1jI9sGNHT83Ywalm9-55" target="jOv1jI9sGNHT83Ywalm9-65" edge="1">
          <mxGeometry width="50" height="50" relative="1" as="geometry">
            <mxPoint x="382" y="315.0000000000002" as="sourcePoint" />
            <mxPoint x="462" y="240" as="targetPoint" />
          </mxGeometry>
        </mxCell>
        <mxCell id="jOv1jI9sGNHT83Ywalm9-70" value="&lt;font style=&quot;font-size: 16px;&quot;&gt;Beacon committee&lt;/font&gt;" style="text;html=1;strokeColor=none;fillColor=none;align=center;verticalAlign=middle;whiteSpace=wrap;rounded=0;sketch=1;fontFamily=Gloria Hallelujah;fontSource=https%3A%2F%2Ffonts.googleapis.com%2Fcss%3Ffamily%3DGloria%2BHallelujah;" parent="1" vertex="1">
          <mxGeometry x="143" y="196" width="159" height="30" as="geometry" />
        </mxCell>
        <mxCell id="jOv1jI9sGNHT83Ywalm9-71" value="&lt;font style=&quot;font-size: 16px;&quot;&gt;Beacon committee&lt;/font&gt;" style="text;html=1;strokeColor=none;fillColor=none;align=center;verticalAlign=middle;whiteSpace=wrap;rounded=0;sketch=1;fontFamily=Gloria Hallelujah;fontSource=https%3A%2F%2Ffonts.googleapis.com%2Fcss%3Ffamily%3DGloria%2BHallelujah;" parent="1" vertex="1">
          <mxGeometry x="142.5" y="255" width="160" height="30" as="geometry" />
        </mxCell>
        <mxCell id="jOv1jI9sGNHT83Ywalm9-74" value="&lt;font style=&quot;font-size: 16px;&quot;&gt;Beacon committee&lt;/font&gt;" style="text;html=1;strokeColor=none;fillColor=none;align=center;verticalAlign=middle;whiteSpace=wrap;rounded=0;sketch=1;fontFamily=Gloria Hallelujah;fontSource=https%3A%2F%2Ffonts.googleapis.com%2Fcss%3Ffamily%3DGloria%2BHallelujah;" parent="1" vertex="1">
          <mxGeometry x="142.5" y="305" width="160" height="30" as="geometry" />
        </mxCell>
        <mxCell id="jOv1jI9sGNHT83Ywalm9-75" value="&lt;font style=&quot;font-size: 16px;&quot;&gt;Beacon committee&lt;/font&gt;" style="text;html=1;strokeColor=none;fillColor=none;align=center;verticalAlign=middle;whiteSpace=wrap;rounded=0;sketch=1;fontFamily=Gloria Hallelujah;fontSource=https%3A%2F%2Ffonts.googleapis.com%2Fcss%3Ffamily%3DGloria%2BHallelujah;" parent="1" vertex="1">
          <mxGeometry x="142.5" y="355" width="160" height="30" as="geometry" />
        </mxCell>
        <mxCell id="jOv1jI9sGNHT83Ywalm9-76" value="&lt;font style=&quot;font-size: 12px;&quot;&gt;Aggregate&lt;/font&gt;" style="text;html=1;strokeColor=none;fillColor=none;align=center;verticalAlign=middle;whiteSpace=wrap;rounded=0;sketch=1;fontFamily=Gloria Hallelujah;fontSource=https%3A%2F%2Ffonts.googleapis.com%2Fcss%3Ffamily%3DGloria%2BHallelujah;fontSize=16;" parent="1" vertex="1">
          <mxGeometry x="335" y="70" width="60" height="30" as="geometry" />
        </mxCell>
        <mxCell id="jOv1jI9sGNHT83Ywalm9-77" value="&lt;font style=&quot;font-size: 12px;&quot;&gt;Aggregate&lt;/font&gt;" style="text;html=1;strokeColor=none;fillColor=none;align=center;verticalAlign=middle;whiteSpace=wrap;rounded=0;sketch=1;fontFamily=Gloria Hallelujah;fontSource=https%3A%2F%2Ffonts.googleapis.com%2Fcss%3Ffamily%3DGloria%2BHallelujah;fontSize=16;" parent="1" vertex="1">
          <mxGeometry x="335" y="130" width="60" height="30" as="geometry" />
        </mxCell>
        <mxCell id="jOv1jI9sGNHT83Ywalm9-81" value="" style="ellipse;whiteSpace=wrap;html=1;sketch=1;fontFamily=Gloria Hallelujah;fontSource=https%3A%2F%2Ffonts.googleapis.com%2Fcss%3Ffamily%3DGloria%2BHallelujah;fontSize=12;fillColor=none;dashed=1;dashPattern=1 4;" parent="1" vertex="1">
          <mxGeometry x="287" y="58" width="70" height="150" as="geometry" />
        </mxCell>
        <mxCell id="jOv1jI9sGNHT83Ywalm9-82" value="" style="curved=1;endArrow=none;html=1;sketch=1;fontFamily=Gloria Hallelujah;fontSource=https%3A%2F%2Ffonts.googleapis.com%2Fcss%3Ffamily%3DGloria%2BHallelujah;fontSize=12;startArrow=classic;startFill=1;endFill=0;exitX=0.688;exitY=0.044;exitDx=0;exitDy=0;exitPerimeter=0;" parent="1" source="jOv1jI9sGNHT83Ywalm9-81" edge="1">
          <mxGeometry width="50" height="50" relative="1" as="geometry">
            <mxPoint x="345" y="75" as="sourcePoint" />
            <mxPoint x="472" y="75" as="targetPoint" />
            <Array as="points">
              <mxPoint x="390" y="60" />
              <mxPoint x="370" y="80" />
            </Array>
          </mxGeometry>
        </mxCell>
        <mxCell id="jOv1jI9sGNHT83Ywalm9-83" value="&lt;div align=&quot;left&quot;&gt;&lt;font style=&quot;font-size: 16px;&quot;&gt;Aggregators&lt;/font&gt;&lt;/div&gt;" style="text;html=1;strokeColor=none;fillColor=none;align=left;verticalAlign=middle;whiteSpace=wrap;rounded=0;dashed=1;dashPattern=1 4;sketch=1;fontFamily=Gloria Hallelujah;fontSource=https%3A%2F%2Ffonts.googleapis.com%2Fcss%3Ffamily%3DGloria%2BHallelujah;fontSize=12;" parent="1" vertex="1">
          <mxGeometry x="475" y="59" width="190" height="30" as="geometry" />
        </mxCell>
      </root>
    </mxGraphModel>
  </diagram>
</mxfile>
